<?xml version="1.0" encoding="UTF-8"?>
<svg version="1.1" xmlns="http://www.w3.org/2000/svg" width="384" height="180">
<path d="M0 0 C1.2684375 0.2784375 1.2684375 0.2784375 2.5625 0.5625 C3.12020081 0.41144302 3.67790161 0.26038605 4.25250244 0.10475159 C7.52028995 -0.66233276 10.748199 -0.56802673 14.08496094 -0.55102539 C14.83656998 -0.55117142 15.58817902 -0.55131744 16.36256409 -0.5514679 C18.84069734 -0.55077262 21.31875492 -0.54299826 23.796875 -0.53515625 C25.51751667 -0.5332907 27.23815888 -0.53186744 28.95880127 -0.53086853 C33.48302685 -0.52705413 38.00722023 -0.51723302 42.53143311 -0.50616455 C47.14985722 -0.49592729 51.76828655 -0.49136595 56.38671875 -0.48632812 C65.44532663 -0.4756098 74.50391064 -0.45854629 83.5625 -0.4375 C83.6875 5.3125 83.6875 5.3125 82.5625 7.5625 C71.66207469 7.69309368 60.7616471 7.82349566 49.86121655 7.95365143 C44.7999733 8.01409088 39.73873087 8.0745969 34.67749023 8.13525391 C29.79513545 8.1937646 24.91277861 8.25210195 20.0304203 8.31031799 C18.16566201 8.3325836 16.30090447 8.35491216 14.43614769 8.37730408 C11.82877163 8.40860268 9.22139302 8.43967948 6.61401367 8.47070312 C5.45199936 8.48472923 5.45199936 8.48472923 4.26651001 8.4990387 C1.36495085 8.53338069 -1.53570601 8.5625 -4.4375 8.5625 C-7.23649266 10.80390969 -9.87899549 13.14641882 -12.5234375 15.56445312 C-15.8547233 18.5140291 -17.94282444 19.90859235 -22.4375 20.5625 C-24.53413191 21.90579588 -24.53413191 21.90579588 -26.4375 23.5625 C-29.40644535 25.91291507 -31.54437862 27.31917991 -35.4375 27.5625 C-31.98080169 21.3952269 -27.87601662 16.59278173 -22.8125 11.6875 C-21.81089844 10.69363281 -21.81089844 10.69363281 -20.7890625 9.6796875 C-15.72070681 4.6924255 -12.64193353 2.59170479 -5.4375 1.5625 C-2.4375 -0.4375 -2.4375 -0.4375 0 0 Z M-8.4375 6.5625 C-9.4275 8.0475 -9.4275 8.0475 -10.4375 9.5625 C-9.1175 8.9025 -7.7975 8.2425 -6.4375 7.5625 C-7.0975 7.2325 -7.7575 6.9025 -8.4375 6.5625 Z " fill="#FFFFFF" transform="translate(279.4375,56.4375)"/>
<path d="M0 0 C6.744375 -0.1546875 6.744375 -0.1546875 13.625 -0.3125 C15.03217285 -0.35802002 16.4393457 -0.40354004 17.88916016 -0.45043945 C28.19905483 -0.56519126 28.19905483 -0.56519126 31.8359375 2.39453125 C35.26914004 6.52800795 35.33814334 9.27014596 35.28515625 14.5234375 C34.88158403 18.02843463 33.56858706 19.64546186 31 22 C29.67366955 23.0092697 28.34140549 24.01085436 27 25 C27.44730469 25.54527344 27.89460938 26.09054688 28.35546875 26.65234375 C32.51737881 31.84363881 35.96361916 37.08115623 39 43 C35.78391131 43.72197909 33.18918033 43.92064057 30 43 C27.05931082 39.67649922 25.13284142 35.87209115 23 32 C20.05250222 27.89132479 20.05250222 27.89132479 16 25 C13.03 24.67 10.06 24.34 7 24 C7 30.27 7 36.54 7 43 C4.69 43 2.38 43 0 43 C0 28.81 0 14.62 0 0 Z M7 5 C7 9.62 7 14.24 7 19 C9.39614126 19.05425226 11.79103853 19.09379027 14.1875 19.125 C14.86103516 19.14175781 15.53457031 19.15851563 16.22851562 19.17578125 C20.2768697 19.21527739 23.39873693 18.89787235 27 17 C28.78403188 14.64832161 29.00948901 13.38904941 28.9375 10.4375 C27.6361977 7.05411402 26.28045572 6.50606674 23 5 C20.14327264 4.79015225 17.52798778 4.71350177 14.6875 4.8125 C13.57665039 4.83280273 13.57665039 4.83280273 12.44335938 4.85351562 C10.62858925 4.88864021 8.81419712 4.94244028 7 5 Z " fill="#FFFFFF" transform="translate(327,104)"/>
<path d="M0 0 C6.744375 -0.1546875 6.744375 -0.1546875 13.625 -0.3125 C15.03217285 -0.35802002 16.4393457 -0.40354004 17.88916016 -0.45043945 C28.19905483 -0.56519126 28.19905483 -0.56519126 31.8359375 2.39453125 C35.26914004 6.52800795 35.33814334 9.27014596 35.28515625 14.5234375 C34.88158403 18.02843463 33.56858706 19.64546186 31 22 C29.67366955 23.0092697 28.34140549 24.01085436 27 25 C27.44730469 25.54527344 27.89460938 26.09054688 28.35546875 26.65234375 C32.51737881 31.84363881 35.96361916 37.08115623 39 43 C35.78391131 43.72197909 33.18918033 43.92064057 30 43 C27.05931082 39.67649922 25.13284142 35.87209115 23 32 C20.05250222 27.89132479 20.05250222 27.89132479 16 25 C13.03 24.67 10.06 24.34 7 24 C7 30.27 7 36.54 7 43 C4.69 43 2.38 43 0 43 C0 28.81 0 14.62 0 0 Z M7 5 C7 9.62 7 14.24 7 19 C9.39614126 19.05425226 11.79103853 19.09379027 14.1875 19.125 C14.86103516 19.14175781 15.53457031 19.15851563 16.22851562 19.17578125 C20.2768697 19.21527739 23.39873693 18.89787235 27 17 C28.78403188 14.64832161 29.00948901 13.38904941 28.9375 10.4375 C27.6361977 7.05411402 26.28045572 6.50606674 23 5 C20.14327264 4.79015225 17.52798778 4.71350177 14.6875 4.8125 C13.57665039 4.83280273 13.57665039 4.83280273 12.44335938 4.85351562 C10.62858925 4.88864021 8.81419712 4.94244028 7 5 Z " fill="#FFFFFF" transform="translate(153,104)"/>
<path d="M0 0 C6.744375 -0.1546875 6.744375 -0.1546875 13.625 -0.3125 C15.03217285 -0.35802002 16.4393457 -0.40354004 17.88916016 -0.45043945 C28.19905483 -0.56519126 28.19905483 -0.56519126 31.8359375 2.39453125 C35.26914004 6.52800795 35.33814334 9.27014596 35.28515625 14.5234375 C34.88158403 18.02843463 33.56858706 19.64546186 31 22 C29.67366955 23.0092697 28.34140549 24.01085436 27 25 C27.44730469 25.54527344 27.89460938 26.09054688 28.35546875 26.65234375 C32.51737881 31.84363881 35.96361916 37.08115623 39 43 C35.78391131 43.72197909 33.18918033 43.92064057 30 43 C27.05931082 39.67649922 25.13284142 35.87209115 23 32 C20.05250222 27.89132479 20.05250222 27.89132479 16 25 C13.03 24.67 10.06 24.34 7 24 C7 30.27 7 36.54 7 43 C4.69 43 2.38 43 0 43 C0 28.81 0 14.62 0 0 Z M7 5 C7 9.62 7 14.24 7 19 C9.39614126 19.05425226 11.79103853 19.09379027 14.1875 19.125 C14.86103516 19.14175781 15.53457031 19.15851563 16.22851562 19.17578125 C20.2768697 19.21527739 23.39873693 18.89787235 27 17 C28.78403188 14.64832161 29.00948901 13.38904941 28.9375 10.4375 C27.6361977 7.05411402 26.28045572 6.50606674 23 5 C20.14327264 4.79015225 17.52798778 4.71350177 14.6875 4.8125 C13.57665039 4.83280273 13.57665039 4.83280273 12.44335938 4.85351562 C10.62858925 4.88864021 8.81419712 4.94244028 7 5 Z " fill="#FFFFFF" transform="translate(104,104)"/>
<path d="M0 0 C4.03823325 2.37845094 6.20667648 6.02251603 7.4375 10.5 C7.1075 11.16 6.7775 11.82 6.4375 12.5 C3.875 13.125 3.875 13.125 1.4375 13.5 C-1.5625 8.75 -1.5625 8.75 -1.5625 6.5 C-7.13001195 4.48621908 -11.76895052 3.99998156 -17.5625 5.5 C-21.65042385 7.93535889 -23.13328678 10.03760937 -24.5625 14.5 C-25.56433266 23.6241982 -25.56433266 23.6241982 -23 32.1875 C-19.46304085 35.54307663 -16.26677169 37.43042183 -11.28515625 37.55859375 C-6.85784189 37.21236451 -2.84330716 36.67828194 0.4375 33.5 C1.15577589 30.76731128 1.29723268 28.35210213 1.4375 25.5 C-2.8525 25.5 -7.1425 25.5 -11.5625 25.5 C-11.5625 23.85 -11.5625 22.2 -11.5625 20.5 C-5.2925 20.5 0.9775 20.5 7.4375 20.5 C8.39838539 36.23449826 8.39838539 36.23449826 5.76171875 39.70703125 C3.6603054 40.97863604 1.79176106 41.81577881 -0.5625 42.5 C-2.0475 42.995 -2.0475 42.995 -3.5625 43.5 C-11.48100815 44.11375984 -19.0629509 44.61465728 -25.5625 39.5 C-29.87713974 35.45155911 -32.28572483 31.1647656 -32.8984375 25.265625 C-32.98841575 17.16758215 -32.76282073 10.17213758 -27.13671875 3.9140625 C-19.85514282 -2.59608032 -8.95932391 -3.80602858 0 0 Z " fill="#FFFFFF" transform="translate(254.5625,104.5)"/>
<path d="M0 0 C5.67566608 3.41610845 9.42474971 7.72996655 11.5078125 14.05859375 C12.27850237 22.06122226 12.80735035 30.49106832 7.5078125 37.05859375 C3.78644242 40.91926645 -0.09209743 43.7887797 -5.48046875 44.39453125 C-12.42300147 44.47611213 -16.97328778 44.4277227 -22.4921875 40.05859375 C-28.5141765 34.02046 -30.38138448 28.44268883 -30.4921875 20.05859375 C-29.74559674 12.65193937 -27.09976616 7.18454936 -21.4296875 2.24609375 C-15.53741795 -2.14176655 -6.86025411 -2.5914126 0 0 Z M-19.4921875 8.05859375 C-23.64458072 13.28257232 -24.16185262 19.54796061 -23.4921875 26.05859375 C-21.760464 31.73479855 -19.50157268 34.8450259 -14.4921875 38.05859375 C-10.47885873 39.35631683 -7.27227563 39.32862426 -3.2421875 37.93359375 C0.88287262 35.12105276 2.92075478 32.48430536 4.8203125 27.87109375 C5.95088212 21.60157133 5.69071579 16.30203102 2.6953125 10.62109375 C-0.97066596 6.32666183 -3.48979351 4.46477096 -9.33203125 3.9296875 C-13.2641393 4.16433409 -16.34543165 5.76015687 -19.4921875 8.05859375 Z " fill="#FFFFFF" transform="translate(303.4921875,103.94140625)"/>
<path d="M0 0 C10.56 0 21.12 0 32 0 C32 1.65 32 3.3 32 5 C23.75 5 15.5 5 7 5 C7 9.29 7 13.58 7 18 C14.92 18 22.84 18 31 18 C31 19.65 31 21.3 31 23 C23.08 23 15.16 23 7 23 C7 27.95 7 32.9 7 38 C15.58 38 24.16 38 33 38 C33 39.65 33 41.3 33 43 C22.11 43 11.22 43 0 43 C0 28.81 0 14.62 0 0 Z " fill="#FFFFFF" transform="translate(59,104)"/>
<path d="M0 0 C6.6205229 3.34265816 12.79155995 7.17500197 18.9440918 11.30981445 C19.90057617 11.93823242 20.85706055 12.56665039 21.8425293 13.21411133 C23.19604492 14.11806641 23.19604492 14.11806641 24.5769043 15.0402832 C25.39304199 15.58450928 26.20917969 16.12873535 27.05004883 16.68945312 C27.63383301 17.16229736 28.21761719 17.6351416 28.8190918 18.12231445 C28.8190918 18.78231445 28.8190918 19.44231445 28.8190918 20.12231445 C24.49174788 22.35155223 21.53508998 22.04701998 16.8190918 21.12231445 C16.8190918 21.78231445 16.8190918 22.44231445 16.8190918 23.12231445 C15.7672168 23.10168945 14.7153418 23.08106445 13.6315918 23.05981445 C10.00590673 22.96385806 10.00590673 22.96385806 7.34643555 23.7890625 C4.08467703 24.21915334 3.16173669 23.47003153 0.5690918 21.5168457 C-0.2043457 20.94514648 -0.9777832 20.37344727 -1.7746582 19.78442383 C-2.5687207 19.17405273 -3.3627832 18.56368164 -4.1809082 17.93481445 C-4.9749707 17.3437793 -5.7690332 16.75274414 -6.5871582 16.14379883 C-10.51131693 13.21049018 -14.37822226 10.21199678 -18.1809082 7.12231445 C-20.1609082 8.11231445 -22.1409082 9.10231445 -24.1809082 10.12231445 C-22.70885216 6.28831538 -20.76216209 4.94479281 -17.2434082 2.93481445 C-16.36813477 2.42563477 -15.49286133 1.91645508 -14.59106445 1.3918457 C-9.77328271 -1.14588374 -5.21303795 -2.09793702 0 0 Z M-5.1809082 1.12231445 C-3.2009082 2.11231445 -3.2009082 2.11231445 -1.1809082 3.12231445 C-1.1809082 2.46231445 -1.1809082 1.80231445 -1.1809082 1.12231445 C-2.5009082 1.12231445 -3.8209082 1.12231445 -5.1809082 1.12231445 Z M-10.1809082 2.12231445 C-10.1809082 2.78231445 -10.1809082 3.44231445 -10.1809082 4.12231445 C-8.8609082 4.45231445 -7.5409082 4.78231445 -6.1809082 5.12231445 C-6.5109082 4.13231445 -6.8409082 3.14231445 -7.1809082 2.12231445 C-8.1709082 2.12231445 -9.1609082 2.12231445 -10.1809082 2.12231445 Z M-14.8059082 4.62231445 C-15.2596582 5.11731445 -15.7134082 5.61231445 -16.1809082 6.12231445 C-13.7059082 6.61731445 -13.7059082 6.61731445 -11.1809082 7.12231445 C-11.1809082 5.80231445 -11.1809082 4.48231445 -11.1809082 3.12231445 C-13.30455301 2.89622109 -13.30455301 2.89622109 -14.8059082 4.62231445 Z M-6.1809082 5.12231445 C-5.8509082 5.78231445 -5.5209082 6.44231445 -5.1809082 7.12231445 C-4.5209082 6.79231445 -3.8609082 6.46231445 -3.1809082 6.12231445 C-4.1709082 5.79231445 -5.1609082 5.46231445 -6.1809082 5.12231445 Z M-11.1809082 7.12231445 C-10.8509082 7.78231445 -10.5209082 8.44231445 -10.1809082 9.12231445 C-9.5209082 8.79231445 -8.8609082 8.46231445 -8.1809082 8.12231445 C-9.1709082 7.79231445 -10.1609082 7.46231445 -11.1809082 7.12231445 Z M-3.1809082 7.12231445 C-2.8509082 7.78231445 -2.5209082 8.44231445 -2.1809082 9.12231445 C-1.5209082 8.79231445 -0.8609082 8.46231445 -0.1809082 8.12231445 C-1.1709082 7.79231445 -2.1609082 7.46231445 -3.1809082 7.12231445 Z M-8.1809082 9.12231445 C-7.8509082 9.78231445 -7.5209082 10.44231445 -7.1809082 11.12231445 C-6.5209082 10.79231445 -5.8609082 10.46231445 -5.1809082 10.12231445 C-6.1709082 9.79231445 -7.1609082 9.46231445 -8.1809082 9.12231445 Z M-0.1809082 9.12231445 C0.8090918 10.60731445 0.8090918 10.60731445 1.8190918 12.12231445 C2.4790918 11.79231445 3.1390918 11.46231445 3.8190918 11.12231445 C2.4990918 10.46231445 1.1790918 9.80231445 -0.1809082 9.12231445 Z M3.8190918 12.12231445 C4.1490918 12.78231445 4.4790918 13.44231445 4.8190918 14.12231445 C5.4790918 13.79231445 6.1390918 13.46231445 6.8190918 13.12231445 C5.8290918 12.79231445 4.8390918 12.46231445 3.8190918 12.12231445 Z M6.8190918 14.12231445 C7.1490918 14.78231445 7.4790918 15.44231445 7.8190918 16.12231445 C8.4790918 15.79231445 9.1390918 15.46231445 9.8190918 15.12231445 C8.8290918 14.79231445 7.8390918 14.46231445 6.8190918 14.12231445 Z M9.8190918 16.12231445 C10.1490918 16.78231445 10.4790918 17.44231445 10.8190918 18.12231445 C11.4790918 17.79231445 12.1390918 17.46231445 12.8190918 17.12231445 C11.8290918 16.79231445 10.8390918 16.46231445 9.8190918 16.12231445 Z M13.8190918 19.12231445 C14.1490918 19.78231445 14.4790918 20.44231445 14.8190918 21.12231445 C15.4790918 20.79231445 16.1390918 20.46231445 16.8190918 20.12231445 C15.8290918 19.79231445 14.8390918 19.46231445 13.8190918 19.12231445 Z " fill="#FFFFFF" transform="translate(201.180908203125,58.877685546875)"/>
<path d="M0 0 C9.9 0 19.8 0 30 0 C30 1.65 30 3.3 30 5 C22.41 5 14.82 5 7 5 C7 9.29 7 13.58 7 18 C13.6 18 20.2 18 27 18 C27 19.65 27 21.3 27 23 C20.4 23 13.8 23 7 23 C7 29.6 7 36.2 7 43 C4.69 43 2.38 43 0 43 C0 28.81 0 14.62 0 0 Z " fill="#FFFFFF" transform="translate(17,104)"/>
<path d="M0 0 C0 0.66 0 1.32 0 2 C2.64 1.67 5.28 1.34 8 1 C5.40258387 2.98864673 2.76112091 4.81065246 0 6.5625 C-5.16403105 9.94524007 -9.68981394 13.93685471 -14.30078125 18.0234375 C-17 20 -17 20 -21 20 C-23.07220482 21.52108612 -23.07220482 21.52108612 -25 23.5 C-28.55555556 27 -28.55555556 27 -33 27 C-34.3303125 27.9590625 -34.3303125 27.9590625 -35.6875 28.9375 C-43.9908206 34.10749207 -56.47788341 32.09244773 -66 32 C-65.67 30.02 -65.34 28.04 -65 26 C-63.90042969 25.91363281 -62.80085938 25.82726562 -61.66796875 25.73828125 C-52.5880886 24.91386555 -45.07403152 23.56889041 -37 19 C-37 19.66 -37 20.32 -37 21 C-36.34 20.29875 -35.68 19.5975 -35 18.875 C-26.76232145 10.66079062 -26.76232145 10.66079062 -22.0078125 9.5234375 C-18.70347306 8.66199492 -16.48651469 6.33233662 -13.90234375 4.1796875 C-13.27457031 3.79039063 -12.64679688 3.40109375 -12 3 C-11.01 3.33 -10.02 3.66 -9 4 C-6.9600281 2.63676257 -6.9600281 2.63676257 -5 1 C-2 0 -2 0 0 0 Z M-11 9 C-12.57840572 10.55705194 -12.57840572 10.55705194 -14.125 12.5 C-14.66382813 13.1496875 -15.20265625 13.799375 -15.7578125 14.46875 C-16.16773438 14.9740625 -16.57765625 15.479375 -17 16 C-13.25979502 14.31847927 -11.43865652 12.30960527 -9 9 C-9.66 9 -10.32 9 -11 9 Z " fill="#FFFFFF" transform="translate(183,56)"/>
<path d="M0 0 C0 17.82 0 35.64 0 54 C-2.97 54 -5.94 54 -9 54 C-9 37.5 -9 21 -9 4 C-2 0 -2 0 0 0 Z " fill="#FFFFFF" transform="translate(326,0)"/>
<path d="M0 0 C0 12.21 0 24.42 0 37 C-3.63 37 -7.26 37 -11 37 C-11 25.78 -11 14.56 -11 3 C-3 0 -3 0 0 0 Z " fill="#FFFFFF" transform="translate(315,17)"/>
<path d="M0 0 C2.31 0 4.62 0 7 0 C7 14.19 7 28.38 7 43 C4.69 43 2.38 43 0 43 C0 28.81 0 14.62 0 0 Z " fill="#FFFFFF" transform="translate(203,104)"/>
<path d="M0 0 C0 12.87 0 25.74 0 39 C-2.64 39 -5.28 39 -8 39 C-8 27.12 -8 15.24 -8 3 C-2 0 -2 0 0 0 Z " fill="#FFFFFF" transform="translate(345,15)"/>
<path d="M0 0 C3.3 0 6.6 0 10 0 C12.38716462 2.38716462 11.60405044 8.24153938 11.67724609 11.54663086 C11.59016373 15.38842789 11.49055125 17.37692079 9.0625 20.4609375 C6.12733746 22.38948981 3.57456913 24 0 24 C0 16.08 0 8.16 0 0 Z " fill="#FFFFFF" transform="translate(304,65)"/>
<path d="M0 0 C16.17 0 32.34 0 49 0 C49 1.32 49 2.64 49 4 C32.83 4 16.66 4 0 4 C0 2.68 0 1.36 0 0 Z " fill="#FFFFFF" transform="translate(0,169)"/>
<path d="M0 0 C0.99 0.33 1.98 0.66 3 1 C0.08899421 3.96056456 -2.82861694 6.91441186 -5.75244141 9.86230469 C-6.74548045 10.86538097 -7.73671447 11.87024767 -8.72607422 12.87695312 C-10.15117426 14.32640161 -11.58271168 15.76921773 -13.015625 17.2109375 C-14.30388184 18.51490479 -14.30388184 18.51490479 -15.61816406 19.84521484 C-17.7414041 21.766055 -19.3022515 23.08225995 -22 24 C-22.99 23.67 -23.98 23.34 -25 23 C-26.3395912 23.3072203 -27.67265104 23.64358222 -29 24 C-30.58211573 24.06548492 -32.16670081 24.08578381 -33.75 24.0625 C-34.54921875 24.05347656 -35.3484375 24.04445313 -36.171875 24.03515625 C-36.77515625 24.02355469 -37.3784375 24.01195313 -38 24 C-35.28380233 22.18920156 -33.96594729 21.67949707 -30.9375 20.9375 C-25.59812611 19.25046656 -22.28726071 15.96866719 -18.29296875 12.16015625 C-15.2585026 9.30145134 -12.17036761 6.47476792 -8 5.5625 C-5.68199018 4.91055974 -4.71720429 3.9710493 -2.9375 2.375 C-1.968125 1.59125 -0.99875 0.8075 0 0 Z M-16 14 C-16.99 15.485 -16.99 15.485 -18 17 C-16.68 16.34 -15.36 15.68 -14 15 C-14.66 14.67 -15.32 14.34 -16 14 Z M-22 19 C-22.33 19.66 -22.66 20.32 -23 21 C-22.01 20.67 -21.02 20.34 -20 20 C-20.66 19.67 -21.32 19.34 -22 19 Z " fill="#FFFFFF" transform="translate(257,64)"/>
<path d="M0 0 C0 8.25 0 16.5 0 25 C-2.31 25 -4.62 25 -7 25 C-7.14500644 21.39625537 -7.23396763 17.79325758 -7.3125 14.1875 C-7.35439453 13.16333984 -7.39628906 12.13917969 -7.43945312 11.08398438 C-7.48500918 8.30506473 -7.47983773 5.7383743 -7 3 C-4.53102287 0.73240763 -3.32803642 0 0 0 Z " fill="#FFFFFF" transform="translate(335,29)"/>
<path d="M0 0 C2.97 0 5.94 0 9 0 C9 4.29 9 8.58 9 13 C6.03 14.32 3.06 15.64 0 17 C0 11.39 0 5.78 0 0 Z " fill="#FFFFFF" transform="translate(317,65)"/>
<path d="M0 0 C4 1 4 1 6 4 C6.33 2.68 6.66 1.36 7 0 C7.66 0 8.32 0 9 0 C9 3.3 9 6.6 9 10 C7.68 9.67 6.36 9.34 5 9 C4.67 8.34 4.34 7.68 4 7 C3.67 7.99 3.34 8.98 3 10 C2.01 10 1.02 10 0 10 C0 6.7 0 3.4 0 0 Z " fill="#FFFFFF" transform="translate(274,165)"/>
<path d="M0 0 C2.64 0 5.28 0 8 0 C9 5 9 5 10 10 C7.13275314 9.42655063 6.1385485 9.1385485 4 7 C3.67 7.99 3.34 8.98 3 10 C2.01 10 1.02 10 0 10 C0 6.7 0 3.4 0 0 Z M3 1 C3 2.32 3 3.64 3 5 C4.32 4.67 5.64 4.34 7 4 C6.67 3.01 6.34 2.02 6 1 C5.01 1 4.02 1 3 1 Z " fill="#FFFFFF" transform="translate(76,165)"/>
<path d="M0 0 C0 0.99 0 1.98 0 3 C-2.046875 4.5703125 -2.046875 4.5703125 -4.75 6.125 C-6.07257813 6.90230469 -6.07257813 6.90230469 -7.421875 7.6953125 C-12.01416688 10.01929051 -15.85223941 10.27093477 -21 10 C-23.9375 9 -23.9375 9 -26 8 C-26 7.67 -26 7.34 -26 7 C-25.40574219 7.04640625 -24.81148437 7.0928125 -24.19921875 7.140625 C-15.06850424 7.53822999 -7.68765587 4.81686158 0 0 Z " fill="#FFFFFF" transform="translate(236,76)"/>
<path d="M0 0 C2.31 0 4.62 0 7 0 C7.3125 3.3125 7.3125 3.3125 7 7 C4.60259082 8.95578117 3.12413392 10 0 10 C0 6.7 0 3.4 0 0 Z " fill="#FFFFFF" transform="translate(328,65)"/>
<path d="M0 0 C3 0.25 3 0.25 5 2.25 C5.25 5.25 5.25 5.25 5 8.25 C3 10.25 3 10.25 0 10.5 C-3 10.25 -3 10.25 -5 8.25 C-5.25 5.25 -5.25 5.25 -5 2.25 C-3 0.25 -3 0.25 0 0 Z M-1 1.25 C-2.19838209 3.57854463 -2.19838209 3.57854463 -3 6.25 C-2.01 7.735 -2.01 7.735 -1 9.25 C0.32 8.59 1.64 7.93 3 7.25 C2.67 5.6 2.34 3.95 2 2.25 C1.01 1.92 0.02 1.59 -1 1.25 Z " fill="#FFFFFF" transform="translate(262,164.75)"/>
<path d="M0 0 C2.31 0 4.62 0 7 0 C8 5 8 5 9 10 C6.13275314 9.42655063 5.1385485 9.1385485 3 7 C2.67 7.99 2.34 8.98 2 10 C1.34 10 0.68 10 0 10 C0 6.7 0 3.4 0 0 Z M2 1 C2 2.32 2 3.64 2 5 C3.32 4.67 4.64 4.34 6 4 C5.67 3.01 5.34 2.02 5 1 C4.01 1 3.02 1 2 1 Z " fill="#FFFFFF" transform="translate(307,165)"/>
<path d="M0 0 C2.64 0 5.28 0 8 0 C7.979375 1.093125 7.95875 2.18625 7.9375 3.3125 C7.81455548 6.94384191 7.81455548 6.94384191 9 10 C5.73045798 9.43628586 4.17424117 8.50037734 2 6 C2 7.32 2 8.64 2 10 C1.34 10 0.68 10 0 10 C0 6.7 0 3.4 0 0 Z M2 1 C2 2.32 2 3.64 2 5 C3.32 4.67 4.64 4.34 6 4 C5.67 3.01 5.34 2.02 5 1 C4.01 1 3.02 1 2 1 Z " fill="#FFFFFF" transform="translate(138,165)"/>
<path d="M0 0 C2.875 -0.1875 2.875 -0.1875 6 0 C6.66 0.99 7.32 1.98 8 3 C6.35 2.67 4.7 2.34 3 2 C5.475 3.98 5.475 3.98 8 6 C7.67 7.32 7.34 8.64 7 10 C4.69 10 2.38 10 0 10 C-0.33 9.01 -0.66 8.02 -1 7 C1.16874252 7.50603992 2.99967627 7.99983813 5 9 C5 8.01 5 7.02 5 6 C3.35 5.67 1.7 5.34 0 5 C0 3.35 0 1.7 0 0 Z " fill="#FFFFFF" transform="translate(170,165)"/>
<path d="M0 0 C3.375 -0.1875 3.375 -0.1875 7 0 C9 3 9 3 8.6875 6.125 C8 9 8 9 7 10 C4.66702567 10.04092937 2.33294775 10.04241723 0 10 C0 6.7 0 3.4 0 0 Z M2 1 C2 3.64 2 6.28 2 9 C3.32 8.67 4.64 8.34 6 8 C6 6.02 6 4.04 6 2 C4.68 1.67 3.36 1.34 2 1 Z " fill="#FFFFFF" transform="translate(216,165)"/>
<path d="M0 0 C1.98 0 3.96 0 6 0 C6.33 0.99 6.66 1.98 7 3 C5.35 2.67 3.7 2.34 2 2 C4.77260299 3.93798263 4.77260299 3.93798263 7 5 C6.67 6.65 6.34 8.3 6 10 C4.02 10 2.04 10 0 10 C-0.33 9.01 -0.66 8.02 -1 7 C1.475 7.495 1.475 7.495 4 8 C1.22739701 6.06201737 1.22739701 6.06201737 -1 5 C-0.67 3.35 -0.34 1.7 0 0 Z " fill="#FFFFFF" transform="translate(109,165)"/>
<path d="M0 0 C1.4540625 0.0309375 1.4540625 0.0309375 2.9375 0.0625 C3.2675 1.0525 3.5975 2.0425 3.9375 3.0625 C2.2875 2.7325 0.6375 2.4025 -1.0625 2.0625 C-1.3925 4.0425 -1.7225 6.0225 -2.0625 8.0625 C-1.0725 8.0625 -0.0825 8.0625 0.9375 8.0625 C1.2675 7.4025 1.5975 6.7425 1.9375 6.0625 C2.9275 6.3925 3.9175 6.7225 4.9375 7.0625 C3.9475 8.5475 3.9475 8.5475 2.9375 10.0625 C-0.0625 10.4375 -0.0625 10.4375 -3.0625 10.0625 C-5.0625 7.0625 -5.0625 7.0625 -4.75 3.9375 C-3.82710098 0.0781041 -3.82710098 0.0781041 0 0 Z " fill="#FFFFFF" transform="translate(295.0625,164.9375)"/>
<path d="M0 0 C1.4540625 0.0309375 1.4540625 0.0309375 2.9375 0.0625 C3.2675 1.0525 3.5975 2.0425 3.9375 3.0625 C2.2875 2.7325 0.6375 2.4025 -1.0625 2.0625 C-0.1034375 2.4028125 -0.1034375 2.4028125 0.875 2.75 C2.9375 4.0625 2.9375 4.0625 3.75 6.625 C3.811875 7.429375 3.87375 8.23375 3.9375 9.0625 C2.9375 10.0625 2.9375 10.0625 -0.125 10.125 C-1.094375 10.104375 -2.06375 10.08375 -3.0625 10.0625 C-3.3925 9.0725 -3.7225 8.0825 -4.0625 7.0625 C-1.5875 7.5575 -1.5875 7.5575 0.9375 8.0625 C1.2675 7.4025 1.5975 6.7425 1.9375 6.0625 C0.2875 5.7325 -1.3625 5.4025 -3.0625 5.0625 C-3.625 3.125 -3.625 3.125 -4.0625 1.0625 C-3.0625 0.0625 -3.0625 0.0625 0 0 Z " fill="#FFFFFF" transform="translate(189.0625,164.9375)"/>
<path d="M0 0 C0.94875 0.04125 1.8975 0.0825 2.875 0.125 C3.205 1.115 3.535 2.105 3.875 3.125 C2.225 2.795 0.575 2.465 -1.125 2.125 C-2.13611093 5.17413228 -2.13611093 5.17413228 -1.125 8.125 C-0.465 8.125 0.195 8.125 0.875 8.125 C1.205 7.465 1.535 6.805 1.875 6.125 C2.535 6.125 3.195 6.125 3.875 6.125 C3.545 7.445 3.215 8.765 2.875 10.125 C0 10.25 0 10.25 -3.125 10.125 C-5.125 8.125 -5.125 8.125 -5.375 5.125 C-5.02345647 0.90647769 -4.22997422 0.16919897 0 0 Z " fill="#FFFFFF" transform="translate(246.125,164.875)"/>
<path d="M0 0 C2.64 0 5.28 0 8 0 C8 0.33 8 0.66 8 1 C6.35 1 4.7 1 3 1 C3 1.99 3 2.98 3 4 C4.65 4 6.3 4 8 4 C8 4.33 8 4.66 8 5 C6.35 5 4.7 5 3 5 C3 6.32 3 7.64 3 9 C4.98 9 6.96 9 9 9 C9 9.33 9 9.66 9 10 C6.03 10 3.06 10 0 10 C0 6.7 0 3.4 0 0 Z " fill="#FFFFFF" transform="translate(200,165)"/>
<path d="M0 0 C2.64 0 5.28 0 8 0 C8 0.33 8 0.66 8 1 C6.35 1 4.7 1 3 1 C3 1.99 3 2.98 3 4 C4.65 4 6.3 4 8 4 C8 4.33 8 4.66 8 5 C6.35 5 4.7 5 3 5 C3 6.32 3 7.64 3 9 C4.98 9 6.96 9 9 9 C9 9.33 9 9.66 9 10 C6.03 10 3.06 10 0 10 C0 6.7 0 3.4 0 0 Z " fill="#FFFFFF" transform="translate(92,165)"/>
<path d="M0 0 C2.64 0 5.28 0 8 0 C8 0.33 8 0.66 8 1 C6.35 1 4.7 1 3 1 C3 1.99 3 2.98 3 4 C4.65 4 6.3 4 8 4 C8 4.33 8 4.66 8 5 C6.35 5 4.7 5 3 5 C3 6.32 3 7.64 3 9 C4.65 9 6.3 9 8 9 C8 9.33 8 9.66 8 10 C5.36 10 2.72 10 0 10 C0 6.7 0 3.4 0 0 Z " fill="#FFFFFF" transform="translate(154,165)"/>
<path d="M0 0 C2.31 0 4.62 0 7 0 C7.38218767 1.65614657 7.71395102 3.32457024 8 5 C7 6 7 6 4.4375 6.0625 C3.2309375 6.0315625 3.2309375 6.0315625 2 6 C2 7.32 2 8.64 2 10 C1.34 10 0.68 10 0 10 C0 6.7 0 3.4 0 0 Z M2 1 C2 2.32 2 3.64 2 5 C3.32 4.67 4.64 4.34 6 4 C5.67 3.01 5.34 2.02 5 1 C4.01 1 3.02 1 2 1 Z " fill="#FFFFFF" transform="translate(61,165)"/>
<path d="M0 0 C2.64 0 5.28 0 8 0 C8 0.33 8 0.66 8 1 C6.02 1 4.04 1 2 1 C2 1.99 2 2.98 2 4 C3.65 4 5.3 4 7 4 C7 4.33 7 4.66 7 5 C5.35 5 3.7 5 2 5 C2 6.32 2 7.64 2 9 C3.98 9 5.96 9 8 9 C8 9.33 8 9.66 8 10 C5.36 10 2.72 10 0 10 C0 6.7 0 3.4 0 0 Z " fill="#FFFFFF" transform="translate(353,165)"/>
<path d="M0 0 C2.64 0 5.28 0 8 0 C8 0.33 8 0.66 8 1 C6.02 1 4.04 1 2 1 C2 1.99 2 2.98 2 4 C3.65 4 5.3 4 7 4 C7 4.33 7 4.66 7 5 C5.35 5 3.7 5 2 5 C2 6.32 2 7.64 2 9 C3.98 9 5.96 9 8 9 C8 9.33 8 9.66 8 10 C5.36 10 2.72 10 0 10 C0 6.7 0 3.4 0 0 Z " fill="#FFFFFF" transform="translate(323,165)"/>
<path d="M0 0 C2.64 0 5.28 0 8 0 C7.01 0.33 6.02 0.66 5 1 C5 3.97 5 6.94 5 10 C4.34 10 3.68 10 3 10 C3 7.03 3 4.06 3 1 C2.01 0.67 1.02 0.34 0 0 Z " fill="#FFFFFF" transform="translate(338,165)"/>
<path d="M0 0 C2.64 0 5.28 0 8 0 C7.01 0.33 6.02 0.66 5 1 C5 3.97 5 6.94 5 10 C4.34 10 3.68 10 3 10 C3 7.03 3 4.06 3 1 C2.01 0.67 1.02 0.34 0 0 Z " fill="#FFFFFF" transform="translate(123,165)"/>
</svg>
